<mxfile host="app.diagrams.net" modified="2020-06-29T03:06:02.030Z" agent="5.0 (Macintosh; Intel Mac OS X 10_15_5) AppleWebKit/605.1.15 (KHTML, like Gecko) Version/13.1.1 Safari/605.1.15" etag="SsH87bLdS3FMGFg1sX3G" version="13.3.5" type="github">
  <diagram id="xAWA5xtA1u2txthbvDNl" name="Page-1">
    <mxGraphModel dx="1070" dy="563" grid="1" gridSize="10" guides="1" tooltips="1" connect="1" arrows="1" fold="1" page="1" pageScale="1" pageWidth="827" pageHeight="1169" math="0" shadow="0">
      <root>
        <mxCell id="0" />
        <mxCell id="1" parent="0" />
        <mxCell id="ehMp06EHceT_Mnh_sp1R-1" value="Animal" style="whiteSpace=wrap;html=1;align=center;" vertex="1" parent="1">
          <mxGeometry x="350" y="100" width="100" height="40" as="geometry" />
        </mxCell>
        <mxCell id="ehMp06EHceT_Mnh_sp1R-2" value="Mammals" style="whiteSpace=wrap;html=1;align=center;" vertex="1" parent="1">
          <mxGeometry x="290" y="210" width="100" height="40" as="geometry" />
        </mxCell>
        <mxCell id="ehMp06EHceT_Mnh_sp1R-3" value="Dog" style="whiteSpace=wrap;html=1;align=center;" vertex="1" parent="1">
          <mxGeometry x="220" y="310" width="100" height="40" as="geometry" />
        </mxCell>
        <mxCell id="ehMp06EHceT_Mnh_sp1R-4" value="Cat" style="whiteSpace=wrap;html=1;align=center;" vertex="1" parent="1">
          <mxGeometry x="364" y="310" width="100" height="40" as="geometry" />
        </mxCell>
        <mxCell id="ehMp06EHceT_Mnh_sp1R-5" value="Birds" style="whiteSpace=wrap;html=1;align=center;" vertex="1" parent="1">
          <mxGeometry x="510" y="210" width="100" height="40" as="geometry" />
        </mxCell>
        <mxCell id="ehMp06EHceT_Mnh_sp1R-6" value="Extends" style="endArrow=block;endSize=16;endFill=0;html=1;entryX=0.44;entryY=1;entryDx=0;entryDy=0;entryPerimeter=0;exitX=0.59;exitY=0.025;exitDx=0;exitDy=0;exitPerimeter=0;" edge="1" parent="1" source="ehMp06EHceT_Mnh_sp1R-2" target="ehMp06EHceT_Mnh_sp1R-1">
          <mxGeometry width="160" relative="1" as="geometry">
            <mxPoint x="370" y="200" as="sourcePoint" />
            <mxPoint x="490" y="290" as="targetPoint" />
          </mxGeometry>
        </mxCell>
        <mxCell id="ehMp06EHceT_Mnh_sp1R-7" value="Extends" style="endArrow=block;endSize=16;endFill=0;html=1;exitX=0.37;exitY=-0.075;exitDx=0;exitDy=0;exitPerimeter=0;" edge="1" parent="1" source="ehMp06EHceT_Mnh_sp1R-5">
          <mxGeometry width="160" relative="1" as="geometry">
            <mxPoint x="359" y="221" as="sourcePoint" />
            <mxPoint x="420" y="150" as="targetPoint" />
          </mxGeometry>
        </mxCell>
        <mxCell id="ehMp06EHceT_Mnh_sp1R-8" value="Extends" style="endArrow=block;endSize=16;endFill=0;html=1;entryX=0.44;entryY=1;entryDx=0;entryDy=0;entryPerimeter=0;exitX=0.5;exitY=0;exitDx=0;exitDy=0;" edge="1" parent="1" source="ehMp06EHceT_Mnh_sp1R-3">
          <mxGeometry width="160" relative="1" as="geometry">
            <mxPoint x="290" y="321" as="sourcePoint" />
            <mxPoint x="335" y="250" as="targetPoint" />
          </mxGeometry>
        </mxCell>
        <mxCell id="ehMp06EHceT_Mnh_sp1R-9" value="Extends" style="endArrow=block;endSize=16;endFill=0;html=1;entryX=0.5;entryY=1;entryDx=0;entryDy=0;exitX=0.5;exitY=0;exitDx=0;exitDy=0;" edge="1" parent="1" source="ehMp06EHceT_Mnh_sp1R-4" target="ehMp06EHceT_Mnh_sp1R-2">
          <mxGeometry width="160" relative="1" as="geometry">
            <mxPoint x="280" y="320" as="sourcePoint" />
            <mxPoint x="345" y="260" as="targetPoint" />
          </mxGeometry>
        </mxCell>
      </root>
    </mxGraphModel>
  </diagram>
</mxfile>
